<svg height='100px' width='100px'  fill="#FFFFFF" xmlns="http://www.w3.org/2000/svg" xmlns:xlink="http://www.w3.org/1999/xlink" version="1.1" x="0px" y="0px" viewBox="0 0 64 64" style="enable-background:new 0 0 64 64;" xml:space="preserve"><g><path d="M14,5c-1.654,0-3,1.346-3,3s1.346,3,3,3s3-1.346,3-3S15.654,5,14,5z M14,9c-0.551,0-1-0.448-1-1s0.449-1,1-1s1,0.448,1,1   S14.551,9,14,9z"></path><path d="M63,50.707c0-0.723-0.282-1.402-0.793-1.914S61.016,48,60.293,48c-1.221,0-2.281,0.827-2.577,2.012l-0.241,0.962   l-1.236-0.53l0.301-0.902c0.305-0.916,0.46-1.87,0.46-2.835c0-0.723-0.282-1.402-0.793-1.914S55.016,44,54.293,44   c-1.221,0-2.281,0.827-2.577,2.012l-0.363,1.451l-0.622-0.249c-0.123-0.285-0.287-0.549-0.487-0.785l0.295-0.886   c0.305-0.916,0.46-1.87,0.46-2.835c0-0.723-0.282-1.403-0.793-1.914C49.696,40.281,49.016,40,48.293,40   c-1.221,0-2.28,0.827-2.577,2.012l-0.327,1.304c-0.214-0.294-0.461-0.565-0.773-0.773l-0.113-0.075   c-1.403-3.639-3.508-6.885-6.269-9.647l-0.871-0.871c-3.727-3.727-8.65-5.811-13.902-5.928c-0.898-1.016-1.407-2.293-1.452-3.653   c0.066-0.055,0.136-0.101,0.197-0.162C22.718,21.695,23,21.016,23,20.293v-3.072c0.609-0.549,1-1.337,1-2.221   c0-2.762-0.443-5.49-1.317-8.112l-0.066-0.199C21.483,3.286,18.311,1,14.725,1c-2.646,0-5.137,1.41-6.499,3.68L7.617,5.694   c-0.15,0.251-0.402,0.423-0.693,0.471L5.682,6.373C2.97,6.825,0.997,9.148,0.989,11.96c-0.006,2.25,1.241,4.272,3.3,5.303   c0.981,0.49,2.029,0.739,3.112,0.739c0.002,0,0.005,0,0.008,0L14,18.001v1.381c0,0.638,0.17,1.243,0.468,1.773   C13.53,22.189,13,23.505,13,24.911c0,0.867,0.205,1.734,0.592,2.51l0.965,1.93C13.055,30.002,12,31.497,12,33.236V34H6v0   c-0.462,0-0.925,0.109-1.341,0.316l-2,1c-0.716,0.359-1.25,0.975-1.504,1.734c-0.253,0.761-0.196,1.574,0.163,2.291   C1.829,40.364,2.857,41,4.002,41c0.461,0,0.924-0.109,1.341-0.316L6.71,40h10.47c0.115,0,0.227-0.011,0.337-0.03   c1.259,1.507,2.697,2.825,4.287,3.923l-3.176,3.97C18.223,48.369,18,49.006,18,49.654c0,1.076,0.598,2.043,1.527,2.534l2.404,4.206   l-1.519,0.304C19.015,56.977,18,58.214,18,59.64V60c0,1.654,1.346,3,3,3h6c1.654,0,3-1.346,3-3c0-0.771-0.124-1.533-0.368-2.265   L29,55.837v-0.232c0-0.596-0.174-1.171-0.504-1.664l-2.137-3.206l2.928-3.505L31,47.744v1.67c0,0.912,0.478,1.712,1.194,2.172   l2.739,4.808l-1.521,0.304C32.015,56.977,31,58.214,31,59.64V60c0,1.654,1.346,3,3,3h6c1.654,0,3-1.346,3-3   c0-0.771-0.124-1.533-0.368-2.265L42,55.837v-0.232c0-0.596-0.174-1.171-0.505-1.665l-3.608-5.395   C37.956,48.233,38,47.914,38,47.586V47l1.686,1.265c0.58,0.435,1.287,0.68,2.01,0.719l0.768,0.461l-0.004,0.013   c-0.305,0.916-0.46,1.87-0.46,2.835c0,0.723,0.282,1.402,0.793,1.914S43.984,55,44.707,55c1.221,0,2.281-0.827,2.577-2.012   l0.249-0.994C47.561,51.995,47.59,52,47.619,52c0.019,0,0.036-0.004,0.055-0.004l1.018,0.766l-0.232,0.695   c-0.305,0.916-0.46,1.87-0.46,2.835c0,0.723,0.282,1.403,0.793,1.914C49.304,58.719,49.984,59,50.707,59   c1.221,0,2.281-0.827,2.577-2.012l0.408-1.634l1.342,0.536c0.09,0.036,0.183,0.06,0.274,0.095C55.107,56.738,55,57.511,55,58.293   c0,0.723,0.282,1.402,0.793,1.914S56.984,61,57.707,61c1.221,0,2.281-0.827,2.576-2.011l0.5-1.99c0.004,0,0.008,0.001,0.012,0.001   C62.011,57,63,56.011,63,54.795c0-0.484-0.169-0.933-0.445-1.305C62.849,52.59,63,51.654,63,50.707z M4.45,38.894   c-0.488,0.241-1.105,0.031-1.344-0.446c-0.12-0.239-0.139-0.51-0.054-0.764c0.085-0.257,0.259-0.457,0.501-0.578l1.999-0.999   C5.691,36.037,5.847,36,6,36c0.382,0,0.725,0.212,0.896,0.554c0.119,0.237,0.138,0.508,0.053,0.763   c-0.085,0.254-0.263,0.459-0.501,0.578L4.45,38.894z M8.823,38c0.224-0.633,0.227-1.336-0.009-2H12v0.172   c0,0.67,0.218,1.307,0.621,1.828H8.823z M59.657,50.496c0.119-0.476,0.79-0.636,1.136-0.289c0.133,0.134,0.207,0.312,0.207,0.5   c0,0.569-0.091,1.129-0.228,1.679l-1.434-0.614L59.657,50.496z M53.657,46.496c0.119-0.475,0.789-0.637,1.136-0.289   c0.133,0.134,0.207,0.312,0.207,0.5c0,0.741-0.119,1.474-0.351,2.178c-0.202-0.142-0.417-0.27-0.654-0.365l-0.767-0.307   L53.657,46.496z M44.206,48.158c0.095-0.078,0.197-0.146,0.285-0.234l0.599-0.6c0.278-0.279,0.492-0.603,0.645-0.953l2.516,1.006   C48.706,47.56,49,47.994,49,48.483c0,0.184-0.043,0.367-0.126,0.532l-0.151,0.302c-0.311,0.621-1.143,0.864-1.739,0.507   L44.206,48.158z M48.793,42.207c0.133,0.134,0.207,0.312,0.207,0.5c0,0.75-0.12,1.491-0.357,2.203l-0.138,0.414l-1.414-0.566   l0.567-2.263C47.776,42.021,48.446,41.859,48.793,42.207z M36.821,34.235c1.825,1.825,3.335,3.88,4.528,6.129l-1.472-0.981   c-0.249-0.945-0.866-1.772-1.736-2.27l-1.433-0.819l-0.344-0.344C32.527,32.113,27.426,30,22,30h-1.149l2.496-1.997   c4.762,0.088,9.226,1.984,12.603,5.361L36.821,34.235z M35.292,49.293C34.837,49.749,34.231,50,33.586,50   C33.263,50,33,49.737,33,49.414v-4.658h0.834c0.739,0,1.464-0.111,2.166-0.305v3.135C36,48.23,35.749,48.837,35.292,49.293z    M37.248,41.723c-1.014,0.676-2.195,1.033-3.414,1.033H32.07c-0.335,0-0.646-0.166-0.832-0.445C30.428,41.096,30,39.682,30,38.221   v-0.513c0-0.736,0.469-1.388,1.167-1.62C31.343,36.029,31.525,36,31.707,36c0.295,0,0.588,0.076,0.848,0.225l4.593,2.625   C37.674,39.15,38,39.712,38,40.316C38,40.883,37.719,41.408,37.248,41.723z M25.931,43.939c-0.585-0.266-1.155-0.556-1.708-0.876   c1.452-0.769,2.808-1.717,4.022-2.824c0.157,0.711,0.378,1.405,0.697,2.062C27.996,42.944,26.99,43.491,25.931,43.939z    M16.63,29.023l-0.817-1.635l4.951-1.856c0.223,0.468,0.492,0.913,0.807,1.331l-3.32,2.656c-0.041-0.023-0.078-0.05-0.121-0.071   C17.663,29.213,17.15,29.072,16.63,29.023z M15,24.911c0-0.879,0.325-1.7,0.894-2.356c0.036,0.02,0.069,0.044,0.106,0.063   C16.5,22.868,17.059,23,17.618,23h2.427c0.022,0.212,0.054,0.422,0.093,0.63l-5.066,1.9C15.036,25.324,15,25.119,15,24.911z    M19.967,32h1.566c-0.479,0.517-0.992,0.997-1.534,1.447v-0.975C20,32.312,19.989,32.155,19.967,32z M19.053,38.693   c0.036-0.097,0.067-0.197,0.088-0.301l0.429-2.145c1.719-1.121,3.217-2.506,4.472-4.126c0.81,0.089,1.603,0.243,2.386,0.437   l-0.272,0.406c-1.741,2.61-4.167,4.63-6.981,5.869C19.134,38.786,19.093,38.741,19.053,38.693z M27.818,34.076l0.604-0.902   c0.762,0.285,1.511,0.605,2.23,0.991c-0.038,0.011-0.078,0.013-0.117,0.026c-1.492,0.498-2.496,1.875-2.529,3.441   c-1.597,1.751-3.56,3.164-5.724,4.138c-0.577-0.435-1.131-0.899-1.658-1.397C23.537,38.949,26.007,36.793,27.818,34.076z    M7.408,16.002c-0.002,0-0.003,0-0.005,0c-0.771,0-1.518-0.178-2.264-0.551c-1.33-0.665-2.153-2.001-2.149-3.549   c0.004-1.77,1.275-3.266,3.021-3.557l1.241-0.208c0.87-0.144,1.628-0.66,2.081-1.415l0.608-1.014C10.943,4.038,12.776,3,14.725,3   c2.724,0,5.133,1.736,5.995,4.322l0.066,0.199C21.592,9.938,22,12.454,22,15c0,0.552-0.446,1-0.995,1L7.408,16.002z M21,18v2.293   c0,0.188-0.074,0.366-0.207,0.5C20.659,20.927,20.482,21,20.293,21h-2.675c-0.25,0-0.5-0.059-0.724-0.171   C16.343,20.554,16,19.999,16,19.382v-1.381L21,18z M15.121,37.707l-0.828-0.828C14.107,36.692,14,36.435,14,36.172v-2.936   C14,32.003,15.003,31,16.236,31c0.345,0,0.691,0.082,1,0.236C17.708,31.472,18,31.945,18,32.472v1.17   c0,0.172-0.017,0.345-0.051,0.514L17.18,38h-1.352C15.562,38,15.31,37.896,15.121,37.707z M20.19,49.113l3.324-4.155   c1.173,0.656,2.415,1.195,3.708,1.626l-3.067,3.671c-0.565,0.676-1.531,0.896-2.372,0.618l-1.188-0.396   C20.238,50.358,20,50.028,20,49.654C20,49.458,20.067,49.267,20.19,49.113z M27,61h-6c-0.551,0-1-0.448-1-1v-0.36   c0-0.476,0.338-0.888,0.804-0.98l2.33-0.466C23.681,58.697,24.398,59,25.161,59H26c0.654,0,1.256-0.216,1.749-0.573   C27.913,58.936,28,59.465,28,60C28,60.552,27.551,61,27,61z M27,55.605V56c0,0.552-0.449,1-1,1h-0.839   c-0.358,0-0.69-0.193-0.868-0.504l-2.011-3.519C22.376,52.983,22.469,53,22.563,53c0.868,0,1.694-0.283,2.381-0.781l1.888,2.833   C26.942,55.216,27,55.407,27,55.605z M28.513,44.91c0.526-0.289,1.036-0.605,1.533-0.942c0.277,0.254,0.605,0.433,0.954,0.568v1.12   L28.513,44.91z M40,61h-6c-0.551,0-1-0.448-1-1v-0.36c0-0.476,0.338-0.888,0.804-0.98l2.33-0.466   C36.681,58.697,37.398,59,38.161,59H39c0.654,0,1.256-0.216,1.749-0.573C40.913,58.936,41,59.465,41,60C41,60.552,40.551,61,40,61z    M39.833,55.052C39.942,55.216,40,55.407,40,55.605V56c0,0.552-0.449,1-1,1h-0.839c-0.358,0-0.69-0.193-0.867-0.503l-2.644-4.641   c0.771-0.191,1.482-0.573,2.058-1.149c0.046-0.046,0.078-0.1,0.121-0.147L39.833,55.052z M38,44.5v-0.912   c0.118-0.07,0.242-0.125,0.357-0.202c0.63-0.42,1.103-1.015,1.376-1.696l3.774,2.516c0.309,0.206,0.493,0.55,0.493,0.92   c0,0.296-0.115,0.574-0.325,0.783l-0.598,0.599c-0.572,0.571-1.544,0.641-2.19,0.156L38,44.5z M44.207,52.793   C44.074,52.659,44,52.481,44,52.293c0-0.603,0.099-1.195,0.252-1.776l1.381,0.828l-0.29,1.158   C45.224,52.979,44.554,53.141,44.207,52.793z M50.512,50.212l0.151-0.302c0.079-0.158,0.128-0.329,0.18-0.499l2.408,0.966   C53.706,50.56,54,50.994,54,51.483c0,0.184-0.043,0.367-0.126,0.532l-0.188,0.375c-0.293,0.588-1.123,0.782-1.646,0.39   l-2.209-1.663C50.103,50.861,50.338,50.56,50.512,50.212z M50.207,56.793C50.074,56.659,50,56.481,50,56.293   c0-0.75,0.12-1.491,0.357-2.203l0.019-0.058l0.461,0.347c0.277,0.208,0.589,0.365,0.919,0.47l-0.414,1.655   C51.224,56.979,50.554,57.14,50.207,56.793z M58.343,58.504c-0.119,0.476-0.788,0.637-1.136,0.289   C57.074,58.659,57,58.481,57,58.293c0-0.584,0.095-1.159,0.239-1.723c0.502,0.118,1.008,0.212,1.52,0.28L58.343,58.504z M60.795,55   c-1.727,0-3.415-0.325-5.019-0.967l-0.621-0.248c0.119-0.156,0.23-0.32,0.32-0.5l0.188-0.375c0.074-0.148,0.118-0.308,0.168-0.465   l5.044,2.161C60.951,54.638,61,54.713,61,54.795C61,54.908,60.908,55,60.795,55z"></path></g></svg>